Coordinates
version=1
nRows=13
nColumns=40
inDegrees=yes

Units are S.I. units (second, meters, Newtons, ...)
If the header above contains a line with 'inDegrees', this indicates whether rotational values are in degrees (yes) or radians (no).

endheader
time	pelvis_tilt	pelvis_list	pelvis_rotation	pelvis_tx	pelvis_ty	pelvis_tz	hip_flexion_r	hip_adduction_r	hip_rotation_r	knee_angle_r	knee_angle_r_beta	ankle_angle_r	subtalar_angle_r	mtp_angle_r	hip_flexion_l	hip_adduction_l	hip_rotation_l	knee_angle_l	knee_angle_l_beta	ankle_angle_l	subtalar_angle_l	mtp_angle_l	lumbar_extension	lumbar_bending	lumbar_rotation	arm_flex_r	arm_add_r	arm_rot_r	elbow_flex_r	pro_sup_r	wrist_flex_r	wrist_dev_r	arm_flex_l	arm_add_l	arm_rot_l	elbow_flex_l	pro_sup_l	wrist_flex_l	wrist_dev_l
      5.10000000	     -3.17539233	      0.49133670	      0.54298117	     -0.38919835	      0.70496238	     -1.03229250	     59.36610120	     -3.86336595	      2.41527793	      6.27486207	      0.10951700	     -1.34848496	      0.00000000	      0.00000000	     56.24126866	      1.75562133	     -7.11085631	     89.58473364	      1.56354856	     27.57201998	      0.00000000	      0.00000000	    -17.43819346	     -3.62953601	      1.12952761	     89.90696470	    -11.36994149	     11.71169791	     34.16951809	     77.53354969	      0.00000000	      0.00000000	     89.91465365	    -15.00184392	     13.54093495	     44.19506293	     82.76893301	      0.00000000	      0.00000000
      5.10500000	     -3.04670484	      0.40446601	      0.55132383	     -0.38905587	      0.70581985	     -1.03235484	     59.30808011	     -3.76618356	      2.55692886	      6.30252272	      0.10999977	     -1.54175565	      0.00000000	      0.00000000	     56.02912935	      1.73342544	     -6.99770698	     89.48738397	      1.56184949	     27.52811860	      0.00000000	      0.00000000	    -17.58403032	     -3.51094101	      1.18530642	     89.90501001	    -11.44049086	     11.83712042	     33.98044201	     77.65573322	      0.00000000	      0.00000000	     89.91273484	    -15.07665950	     13.81900476	     44.09049135	     82.83989973	      0.00000000	      0.00000000
      5.11000000	     -2.93923709	      0.36545024	      0.52516339	     -0.38888586	      0.70670767	     -1.03234193	     59.20455240	     -3.68975909	      2.49526585	      6.22979420	      0.10873042	     -1.62544549	      0.00000000	      0.00000000	     55.82041889	      1.66437571	     -7.00116542	     89.37602720	      1.55990595	     27.48996496	      0.00000000	      0.00000000	    -17.70117285	     -3.46371959	      1.24003085	     89.90279375	    -11.55424399	     12.11275648	     33.78360246	     77.98898672	      0.00000000	      0.00000000	     89.91098287	    -15.26725875	     14.45772726	     43.98477804	     83.02405825	      0.00000000	      0.00000000
      5.11500000	     -2.94510407	      0.35714722	      0.54254288	     -0.38884450	      0.70729554	     -1.03236539	     59.27125878	     -3.67615943	      2.50391557	      6.21749875	      0.10851582	     -1.61995330	      0.00000000	      0.00000000	     55.78910841	      1.66663789	     -6.99897912	     89.33547076	      1.55919810	     27.48070201	      0.00000000	      0.00000000	    -17.74437856	     -3.42256544	      1.26045232	     89.89823168	    -11.58938072	     12.10783211	     33.78336518	     77.99893631	      0.00000000	      0.00000000	     89.90775613	    -15.30504224	     14.45242141	     44.00320251	     83.02795314	      0.00000000	      0.00000000
      5.12000000	     -2.80997951	      0.27848842	      0.53407347	     -0.38873298	      0.70834746	     -1.03242407	     59.20253791	     -3.62125546	      2.43594424	      6.33891173	      0.11063488	     -1.54306019	      0.00000000	      0.00000000	     55.48590419	      1.67513939	     -6.86164143	     89.04467986	      1.55412284	     27.39554127	      0.00000000	      0.00000000	    -17.91537157	     -3.31297868	      1.33030164	     89.89587713	    -11.70401953	     12.25458010	     33.44492912	     78.11227787	      0.00000000	      0.00000000	     89.90445619	    -15.40603050	     14.73728439	     43.87895017	     83.09782338	      0.00000000	      0.00000000
      5.12500000	     -2.59113696	      0.30522833	      0.48242829	     -0.38845908	      0.70934635	     -1.03244021	     59.08094285	     -3.57551068	      2.33596103	      6.48859732	      0.11324739	     -1.40953472	      0.00000000	      0.00000000	     55.13459460	      1.64369491	     -6.92720692	     88.93054553	      1.55213083	     27.36908783	      0.00000000	      0.00000000	    -18.14030794	     -3.33805053	      1.39978289	     89.89425112	    -11.74698326	     12.53770866	     33.13217841	     78.32667082	      0.00000000	      0.00000000	     89.90270936	    -15.50004290	     15.29316569	     43.66400292	     83.23177304	      0.00000000	      0.00000000
      5.13000000	     -2.59906539	      0.29075102	      0.48876253	     -0.38847425	      0.70994010	     -1.03244892	     59.15752347	     -3.54837846	      2.33505359	      6.47038012	      0.11292944	     -1.38712440	      0.00000000	      0.00000000	     55.11503064	      1.63900574	     -6.92528451	     88.88966711	      1.55141736	     27.36460889	      0.00000000	      0.00000000	    -18.19617740	     -3.31003568	      1.40879605	     89.88833437	    -11.79427142	     12.53536784	     33.13691188	     78.33849462	      0.00000000	      0.00000000	     89.89759579	    -15.54122229	     15.30516188	     43.67753964	     83.23831214	      0.00000000	      0.00000000
      5.13500000	     -2.59328216	      0.27319639	      0.48308208	     -0.38849530	      0.71057884	     -1.03244314	     59.21918443	     -3.50220403	      2.34473568	      6.47730301	      0.11305026	     -1.38147360	      0.00000000	      0.00000000	     55.06626310	      1.62631513	     -6.90279159	     88.81591771	      1.55013019	     27.34860306	      0.00000000	      0.00000000	    -18.26713427	     -3.28083665	      1.42617998	     89.88315418	    -11.85256667	     12.54700313	     33.10700659	     78.35496626	      0.00000000	      0.00000000	     89.89260212	    -15.59059786	     15.34830809	     43.66756085	     83.25005523	      0.00000000	      0.00000000
      5.14000000	     -2.25706949	      0.18626270	      0.48310019	     -0.38815064	      0.71189637	     -1.03245300	     58.93951607	     -3.39768430	      2.47647696	      6.57696117	      0.11478963	     -1.39485953	      0.00000000	      0.00000000	     54.49532698	      1.58721116	     -6.80504960	     88.53146747	      1.54516560	     27.36390396	      0.00000000	      0.00000000	    -18.59635244	     -3.15934789	      1.52358580	     89.88159765	    -12.15616840	     13.57300051	     32.54144742	     79.35199634	      0.00000000	      0.00000000	     89.89116851	    -16.14704495	     17.14349820	     43.58912774	     83.76110426	      0.00000000	      0.00000000
      5.14500000	     -2.26187784	      0.17752000	      0.49402159	     -0.38815795	      0.71249307	     -1.03255467	     59.01336315	     -3.38210622	      2.48223928	      6.56604422	      0.11459909	     -1.38910569	      0.00000000	      0.00000000	     54.45824849	      1.59697584	     -6.79770554	     88.46881147	      1.54407205	     27.34719805	      0.00000000	      0.00000000	    -18.66261730	     -3.13570794	      1.52315727	     89.87501634	    -12.20261025	     13.56133100	     32.52636932	     79.36990886	      0.00000000	      0.00000000	     89.88410906	    -16.17529619	     17.15452731	     43.56804488	     83.76826252	      0.00000000	      0.00000000
      5.15000000	     -1.99023164	      0.24236315	      0.39126350	     -0.38796424	      0.71369025	     -1.03251377	     58.83485191	     -3.32043628	      2.58608995	      6.69303201	      0.11681545	     -1.40654405	      0.00000000	      0.00000000	     53.98152463	      1.58387384	     -6.88542084	     88.19757043	      1.53933800	     27.28061971	      0.00000000	      0.00000000	    -18.94849240	     -3.22053233	      1.64520909	     89.87139241	    -12.30687580	     13.71760911	     32.00522375	     81.65779363	      0.00000000	      0.00000000	     89.88121605	    -16.36588307	     17.98364361	     43.27722238	     84.73983915	      0.00000000	      0.00000000
      5.15500000	     -1.90261871	      0.14175796	      0.44553403	     -0.38794425	      0.71463388	     -1.03252386	     58.78869794	     -3.26685114	      2.58102048	      6.70088724	      0.11695255	     -1.44927949	      0.00000000	      0.00000000	     53.78852367	      1.54000784	     -6.78514528	     88.01967697	      1.53623317	     27.21707025	      0.00000000	      0.00000000	    -19.11463614	     -3.09964548	      1.63950554	     89.86320374	    -12.38390406	     13.78785243	     31.79596263	     81.71693468	      0.00000000	      0.00000000	     89.87341136	    -16.42926278	     18.13702802	     43.18068001	     84.73382351	      0.00000000	      0.00000000
      5.16000000	     -1.68987216	      0.10407973	      0.41884607	     -0.38776357	      0.71563672	     -1.03248684	     58.58931375	     -3.19836087	      2.40410753	      6.64082097	      0.11590419	     -1.34082362	      0.00000000	      0.00000000	     53.45634923	      1.46653285	     -6.78369335	     87.91426657	      1.53439341	     27.21991461	      0.00000000	      0.00000000	    -19.35660747	     -3.04712049	      1.69091182	     89.85783044	    -12.46223919	     14.20675324	     31.46843552	     82.63384321	      0.00000000	      0.00000000	     89.86789242	    -16.73558839	     19.12692453	     43.05591293	     84.80207403	      0.00000000	      0.00000000
